<?xml version="1.0" encoding="utf-8" standalone="no"?>
<!DOCTYPE svg PUBLIC "-//W3C//DTD SVG 1.1//EN"
  "http://www.w3.org/Graphics/SVG/1.1/DTD/svg11.dtd">
<svg xmlns:xlink="http://www.w3.org/1999/xlink" width="460.8pt" height="345.6pt" viewBox="0 0 460.8 345.6" xmlns="http://www.w3.org/2000/svg" version="1.1">
 <metadata>
  <rdf:RDF xmlns:dc="http://purl.org/dc/elements/1.1/" xmlns:cc="http://creativecommons.org/ns#" xmlns:rdf="http://www.w3.org/1999/02/22-rdf-syntax-ns#">
   <cc:Work>
    <dc:type rdf:resource="http://purl.org/dc/dcmitype/StillImage"/>
    <dc:date>2022-04-14T00:48:41.259592</dc:date>
    <dc:format>image/svg+xml</dc:format>
    <dc:creator>
     <cc:Agent>
      <dc:title>Matplotlib v3.5.1, https://matplotlib.org/</dc:title>
     </cc:Agent>
    </dc:creator>
   </cc:Work>
  </rdf:RDF>
 </metadata>
 <defs>
  <style type="text/css">*{stroke-linejoin: round; stroke-linecap: butt}</style>
 </defs>
 <g id="figure_1">
  <g id="patch_1">
   <path d="M 0 345.6 
L 460.8 345.6 
L 460.8 0 
L 0 0 
z
" style="fill: #ffffff"/>
  </g>
  <g id="axes_1">
   <g id="patch_2">
    <path d="M 57.6 307.584 
L 414.72 307.584 
L 414.72 41.472 
L 57.6 41.472 
z
" style="fill: #ffffff"/>
   </g>
   <g id="PathCollection_1">
    <defs>
     <path id="m2756936263" d="M 0 3 
C 0.795609 3 1.55874 2.683901 2.12132 2.12132 
C 2.683901 1.55874 3 0.795609 3 0 
C 3 -0.795609 2.683901 -1.55874 2.12132 -2.12132 
C 1.55874 -2.683901 0.795609 -3 0 -3 
C -0.795609 -3 -1.55874 -2.683901 -2.12132 -2.12132 
C -2.683901 -1.55874 -3 -0.795609 -3 0 
C -3 0.795609 -2.683901 1.55874 -2.12132 2.12132 
C -1.55874 2.683901 -0.795609 3 0 3 
z
" style="stroke: #1f77b4"/>
    </defs>
    <g clip-path="url(#p127cc76c74)">
     <use xlink:href="#m2756936263" x="78.905455" y="295.488" style="fill: #1f77b4; stroke: #1f77b4"/>
     <use xlink:href="#m2756936263" x="83.978182" y="295.468748" style="fill: #1f77b4; stroke: #1f77b4"/>
     <use xlink:href="#m2756936263" x="89.050909" y="295.436662" style="fill: #1f77b4; stroke: #1f77b4"/>
     <use xlink:href="#m2756936263" x="94.123636" y="295.314734" style="fill: #1f77b4; stroke: #1f77b4"/>
     <use xlink:href="#m2756936263" x="99.196364" y="295.154302" style="fill: #1f77b4; stroke: #1f77b4"/>
     <use xlink:href="#m2756936263" x="104.269091" y="294.807769" style="fill: #1f77b4; stroke: #1f77b4"/>
     <use xlink:href="#m2756936263" x="109.341818" y="294.512574" style="fill: #1f77b4; stroke: #1f77b4"/>
     <use xlink:href="#m2756936263" x="114.414545" y="293.90935" style="fill: #1f77b4; stroke: #1f77b4"/>
     <use xlink:href="#m2756936263" x="119.487273" y="292.850499" style="fill: #1f77b4; stroke: #1f77b4"/>
     <use xlink:href="#m2756936263" x="124.56" y="292.221606" style="fill: #1f77b4; stroke: #1f77b4"/>
     <use xlink:href="#m2756936263" x="129.632727" y="291.361691" style="fill: #1f77b4; stroke: #1f77b4"/>
     <use xlink:href="#m2756936263" x="134.705455" y="282.300495" style="fill: #1f77b4; stroke: #1f77b4"/>
     <use xlink:href="#m2756936263" x="139.778182" y="276.557032" style="fill: #1f77b4; stroke: #1f77b4"/>
     <use xlink:href="#m2756936263" x="144.850909" y="256.817488" style="fill: #1f77b4; stroke: #1f77b4"/>
     <use xlink:href="#m2756936263" x="149.923636" y="247.473932" style="fill: #1f77b4; stroke: #1f77b4"/>
     <use xlink:href="#m2756936263" x="154.996364" y="242.712313" style="fill: #1f77b4; stroke: #1f77b4"/>
     <use xlink:href="#m2756936263" x="160.069091" y="230.943026" style="fill: #1f77b4; stroke: #1f77b4"/>
     <use xlink:href="#m2756936263" x="165.141818" y="220.226173" style="fill: #1f77b4; stroke: #1f77b4"/>
     <use xlink:href="#m2756936263" x="170.214545" y="212.583196" style="fill: #1f77b4; stroke: #1f77b4"/>
     <use xlink:href="#m2756936263" x="175.287273" y="202.687755" style="fill: #1f77b4; stroke: #1f77b4"/>
     <use xlink:href="#m2756936263" x="180.36" y="190.482094" style="fill: #1f77b4; stroke: #1f77b4"/>
     <use xlink:href="#m2756936263" x="185.432727" y="175.594011" style="fill: #1f77b4; stroke: #1f77b4"/>
     <use xlink:href="#m2756936263" x="190.505455" y="163.978739" style="fill: #1f77b4; stroke: #1f77b4"/>
     <use xlink:href="#m2756936263" x="195.578182" y="156.855561" style="fill: #1f77b4; stroke: #1f77b4"/>
     <use xlink:href="#m2756936263" x="200.650909" y="149.655376" style="fill: #1f77b4; stroke: #1f77b4"/>
     <use xlink:href="#m2756936263" x="205.723636" y="142.782472" style="fill: #1f77b4; stroke: #1f77b4"/>
     <use xlink:href="#m2756936263" x="210.796364" y="135.813309" style="fill: #1f77b4; stroke: #1f77b4"/>
     <use xlink:href="#m2756936263" x="215.869091" y="129.043082" style="fill: #1f77b4; stroke: #1f77b4"/>
     <use xlink:href="#m2756936263" x="220.941818" y="121.663213" style="fill: #1f77b4; stroke: #1f77b4"/>
     <use xlink:href="#m2756936263" x="226.014545" y="113.064062" style="fill: #1f77b4; stroke: #1f77b4"/>
     <use xlink:href="#m2756936263" x="231.087273" y="104.317313" style="fill: #1f77b4; stroke: #1f77b4"/>
     <use xlink:href="#m2756936263" x="236.16" y="93.215424" style="fill: #1f77b4; stroke: #1f77b4"/>
     <use xlink:href="#m2756936263" x="241.232727" y="87.080507" style="fill: #1f77b4; stroke: #1f77b4"/>
     <use xlink:href="#m2756936263" x="246.305455" y="81.715663" style="fill: #1f77b4; stroke: #1f77b4"/>
     <use xlink:href="#m2756936263" x="251.378182" y="76.633179" style="fill: #1f77b4; stroke: #1f77b4"/>
     <use xlink:href="#m2756936263" x="256.450909" y="70.389169" style="fill: #1f77b4; stroke: #1f77b4"/>
     <use xlink:href="#m2756936263" x="261.523636" y="64.677792" style="fill: #1f77b4; stroke: #1f77b4"/>
     <use xlink:href="#m2756936263" x="266.596364" y="60.718332" style="fill: #1f77b4; stroke: #1f77b4"/>
     <use xlink:href="#m2756936263" x="271.669091" y="59.126847" style="fill: #1f77b4; stroke: #1f77b4"/>
     <use xlink:href="#m2756936263" x="276.741818" y="57.573866" style="fill: #1f77b4; stroke: #1f77b4"/>
     <use xlink:href="#m2756936263" x="281.814545" y="56.373835" style="fill: #1f77b4; stroke: #1f77b4"/>
     <use xlink:href="#m2756936263" x="286.887273" y="55.276481" style="fill: #1f77b4; stroke: #1f77b4"/>
     <use xlink:href="#m2756936263" x="291.96" y="53.781255" style="fill: #1f77b4; stroke: #1f77b4"/>
    </g>
   </g>
   <g id="matplotlib.axis_1">
    <g id="xtick_1">
     <g id="line2d_1">
      <path d="M 73.832727 307.584 
L 73.832727 41.472 
" clip-path="url(#p127cc76c74)" style="fill: none; stroke: #b0b0b0; stroke-width: 0.8; stroke-linecap: square"/>
     </g>
     <g id="line2d_2">
      <defs>
       <path id="m47b197d1e6" d="M 0 0 
L 0 3.5 
" style="stroke: #000000; stroke-width: 0.8"/>
      </defs>
      <g>
       <use xlink:href="#m47b197d1e6" x="73.832727" y="307.584" style="stroke: #000000; stroke-width: 0.8"/>
      </g>
     </g>
     <g id="text_1">
      <!-- 0 -->
      <g transform="translate(70.707727 321.854312)scale(0.1 -0.1)">
       <defs>
        <path id="Sarasa-Gothic-SC-Regular-30" d="M 2000 -64 
Q 1229 -64 806 560 
Q 384 1184 384 2330 
Q 384 3085 576 3619 
Q 768 4154 1129 4435 
Q 1491 4717 2003 4717 
Q 2509 4717 2870 4435 
Q 3232 4154 3424 3619 
Q 3616 3085 3616 2330 
Q 3616 1184 3193 560 
Q 2771 -64 2000 -64 
z
M 1209 928 
Q 1491 435 2000 435 
Q 2509 435 2790 928 
Q 3072 1421 3072 2330 
Q 3072 3232 2787 3731 
Q 2502 4230 2003 4230 
Q 1498 4230 1213 3731 
Q 928 3232 928 2330 
Q 928 1421 1209 928 
z
" transform="scale(0.015625)"/>
       </defs>
       <use xlink:href="#Sarasa-Gothic-SC-Regular-30"/>
      </g>
     </g>
    </g>
    <g id="xtick_2">
     <g id="line2d_3">
      <path d="M 124.56 307.584 
L 124.56 41.472 
" clip-path="url(#p127cc76c74)" style="fill: none; stroke: #b0b0b0; stroke-width: 0.8; stroke-linecap: square"/>
     </g>
     <g id="line2d_4">
      <g>
       <use xlink:href="#m47b197d1e6" x="124.56" y="307.584" style="stroke: #000000; stroke-width: 0.8"/>
      </g>
     </g>
     <g id="text_2">
      <!-- 10 -->
      <g transform="translate(119.114688 321.854312)scale(0.1 -0.1)">
       <defs>
        <path id="Sarasa-Gothic-SC-Regular-31" d="M 1555 0 
L 1555 4064 
L 1530 4064 
L 390 3309 
L 390 3885 
L 1555 4653 
L 2118 4653 
L 2118 0 
L 1555 0 
z
" transform="scale(0.015625)"/>
       </defs>
       <use xlink:href="#Sarasa-Gothic-SC-Regular-31"/>
       <use xlink:href="#Sarasa-Gothic-SC-Regular-30" x="46.399994"/>
      </g>
     </g>
    </g>
    <g id="xtick_3">
     <g id="line2d_5">
      <path d="M 175.287273 307.584 
L 175.287273 41.472 
" clip-path="url(#p127cc76c74)" style="fill: none; stroke: #b0b0b0; stroke-width: 0.8; stroke-linecap: square"/>
     </g>
     <g id="line2d_6">
      <g>
       <use xlink:href="#m47b197d1e6" x="175.287273" y="307.584" style="stroke: #000000; stroke-width: 0.8"/>
      </g>
     </g>
     <g id="text_3">
      <!-- 20 -->
      <g transform="translate(169.137273 321.854312)scale(0.1 -0.1)">
       <defs>
        <path id="Sarasa-Gothic-SC-Regular-32" d="M 480 0 
L 480 410 
L 2016 2093 
Q 2291 2387 2464 2604 
Q 2637 2822 2723 3017 
Q 2810 3213 2810 3430 
Q 2810 3674 2691 3853 
Q 2573 4032 2371 4131 
Q 2170 4230 1920 4230 
Q 1517 4230 1277 3987 
Q 1037 3744 1037 3347 
L 499 3347 
Q 499 3757 688 4064 
Q 877 4371 1203 4544 
Q 1530 4717 1939 4717 
Q 2342 4717 2659 4544 
Q 2976 4371 3155 4080 
Q 3334 3789 3334 3430 
Q 3334 3168 3244 2925 
Q 3155 2682 2928 2384 
Q 2701 2086 2298 1658 
L 1254 538 
L 1254 499 
L 3418 499 
L 3418 0 
L 480 0 
z
" transform="scale(0.015625)"/>
       </defs>
       <use xlink:href="#Sarasa-Gothic-SC-Regular-32"/>
       <use xlink:href="#Sarasa-Gothic-SC-Regular-30" x="60.499985"/>
      </g>
     </g>
    </g>
    <g id="xtick_4">
     <g id="line2d_7">
      <path d="M 226.014545 307.584 
L 226.014545 41.472 
" clip-path="url(#p127cc76c74)" style="fill: none; stroke: #b0b0b0; stroke-width: 0.8; stroke-linecap: square"/>
     </g>
     <g id="line2d_8">
      <g>
       <use xlink:href="#m47b197d1e6" x="226.014545" y="307.584" style="stroke: #000000; stroke-width: 0.8"/>
      </g>
     </g>
     <g id="text_4">
      <!-- 30 -->
      <g transform="translate(219.709858 321.854312)scale(0.1 -0.1)">
       <defs>
        <path id="Sarasa-Gothic-SC-Regular-33" d="M 2057 -64 
Q 1606 -64 1254 89 
Q 902 243 697 521 
Q 493 800 474 1165 
L 1043 1165 
Q 1062 941 1200 777 
Q 1338 614 1558 524 
Q 1779 435 2048 435 
Q 2342 435 2576 540 
Q 2810 646 2941 832 
Q 3072 1018 3072 1261 
Q 3072 1523 2944 1718 
Q 2816 1914 2573 2026 
Q 2330 2138 1971 2138 
L 1600 2138 
L 1600 2637 
L 1971 2637 
Q 2387 2637 2649 2857 
Q 2912 3078 2912 3443 
Q 2912 3795 2681 4012 
Q 2451 4230 2061 4230 
Q 1824 4230 1609 4140 
Q 1395 4051 1260 3888 
Q 1126 3725 1120 3488 
L 570 3488 
Q 589 3859 793 4134 
Q 998 4410 1334 4563 
Q 1670 4717 2074 4717 
Q 2394 4717 2650 4617 
Q 2906 4518 3085 4342 
Q 3264 4166 3360 3942 
Q 3456 3718 3456 3475 
Q 3456 3078 3248 2803 
Q 3040 2528 2688 2419 
L 2688 2381 
Q 3130 2310 3379 2009 
Q 3629 1709 3629 1261 
Q 3629 883 3421 582 
Q 3213 282 2861 109 
Q 2509 -64 2057 -64 
z
" transform="scale(0.015625)"/>
       </defs>
       <use xlink:href="#Sarasa-Gothic-SC-Regular-33"/>
       <use xlink:href="#Sarasa-Gothic-SC-Regular-30" x="63.599991"/>
      </g>
     </g>
    </g>
    <g id="xtick_5">
     <g id="line2d_9">
      <path d="M 276.741818 307.584 
L 276.741818 41.472 
" clip-path="url(#p127cc76c74)" style="fill: none; stroke: #b0b0b0; stroke-width: 0.8; stroke-linecap: square"/>
     </g>
     <g id="line2d_10">
      <g>
       <use xlink:href="#m47b197d1e6" x="276.741818" y="307.584" style="stroke: #000000; stroke-width: 0.8"/>
      </g>
     </g>
     <g id="text_5">
      <!-- 40 -->
      <g transform="translate(270.406662 321.854312)scale(0.1 -0.1)">
       <defs>
        <path id="Sarasa-Gothic-SC-Regular-34" d="M 2566 0 
L 2566 954 
L 371 954 
L 371 1421 
L 2419 4653 
L 3098 4653 
L 3098 1453 
L 3738 1453 
L 3738 954 
L 3098 954 
L 3098 0 
L 2566 0 
z
M 979 1453 
L 2566 1453 
L 2566 3936 
L 2528 3936 
L 979 1491 
L 979 1453 
z
" transform="scale(0.015625)"/>
       </defs>
       <use xlink:href="#Sarasa-Gothic-SC-Regular-34"/>
       <use xlink:href="#Sarasa-Gothic-SC-Regular-30" x="64.199997"/>
      </g>
     </g>
    </g>
    <g id="xtick_6">
     <g id="line2d_11">
      <path d="M 327.469091 307.584 
L 327.469091 41.472 
" clip-path="url(#p127cc76c74)" style="fill: none; stroke: #b0b0b0; stroke-width: 0.8; stroke-linecap: square"/>
     </g>
     <g id="line2d_12">
      <g>
       <use xlink:href="#m47b197d1e6" x="327.469091" y="307.584" style="stroke: #000000; stroke-width: 0.8"/>
      </g>
     </g>
     <g id="text_6">
      <!-- 50 -->
      <g transform="translate(321.308935 321.854312)scale(0.1 -0.1)">
       <defs>
        <path id="Sarasa-Gothic-SC-Regular-35" d="M 1939 -64 
Q 1536 -64 1216 96 
Q 896 256 704 531 
Q 512 806 493 1165 
L 1037 1165 
Q 1069 845 1325 640 
Q 1581 435 1939 435 
Q 2221 435 2445 569 
Q 2669 704 2797 941 
Q 2925 1178 2925 1472 
Q 2925 1779 2793 2019 
Q 2662 2259 2428 2396 
Q 2195 2534 1901 2534 
Q 1683 2541 1459 2473 
Q 1235 2406 1088 2298 
L 563 2362 
L 845 4653 
L 3264 4653 
L 3264 4154 
L 1318 4154 
L 1152 2784 
L 1184 2784 
Q 1325 2893 1542 2969 
Q 1760 3046 1990 3046 
Q 2419 3046 2755 2841 
Q 3091 2637 3283 2285 
Q 3475 1933 3475 1485 
Q 3475 1037 3273 688 
Q 3072 339 2726 137 
Q 2381 -64 1939 -64 
z
" transform="scale(0.015625)"/>
       </defs>
       <use xlink:href="#Sarasa-Gothic-SC-Regular-35"/>
       <use xlink:href="#Sarasa-Gothic-SC-Regular-30" x="60.699997"/>
      </g>
     </g>
    </g>
    <g id="xtick_7">
     <g id="line2d_13">
      <path d="M 378.196364 307.584 
L 378.196364 41.472 
" clip-path="url(#p127cc76c74)" style="fill: none; stroke: #b0b0b0; stroke-width: 0.8; stroke-linecap: square"/>
     </g>
     <g id="line2d_14">
      <g>
       <use xlink:href="#m47b197d1e6" x="378.196364" y="307.584" style="stroke: #000000; stroke-width: 0.8"/>
      </g>
     </g>
     <g id="text_7">
      <!-- 60 -->
      <g transform="translate(371.95652 321.854312)scale(0.1 -0.1)">
       <defs>
        <path id="Sarasa-Gothic-SC-Regular-36" d="M 2665 51 
Q 2381 -70 2029 -64 
Q 1798 -64 1564 3 
Q 1331 70 1126 220 
Q 922 371 758 627 
Q 595 883 502 1257 
Q 410 1632 410 2144 
Q 410 2970 614 3542 
Q 819 4115 1196 4416 
Q 1574 4717 2099 4717 
Q 2490 4717 2797 4563 
Q 3104 4410 3296 4131 
Q 3488 3853 3546 3488 
L 2989 3488 
Q 2938 3699 2822 3865 
Q 2707 4032 2524 4125 
Q 2342 4218 2099 4218 
Q 1562 4218 1251 3747 
Q 941 3277 934 2426 
L 973 2426 
Q 1165 2714 1462 2880 
Q 1760 3046 2118 3046 
Q 2419 3046 2684 2931 
Q 2950 2816 3148 2611 
Q 3347 2406 3465 2121 
Q 3584 1837 3584 1498 
Q 3584 1178 3472 890 
Q 3360 602 3155 387 
Q 2950 173 2665 51 
z
M 2029 435 
Q 2317 435 2544 579 
Q 2771 723 2902 963 
Q 3034 1203 3034 1498 
Q 3034 1786 2906 2026 
Q 2778 2266 2554 2406 
Q 2330 2547 2048 2547 
Q 1760 2547 1526 2400 
Q 1293 2253 1155 2013 
Q 1018 1773 1018 1494 
Q 1018 1216 1149 973 
Q 1280 730 1507 582 
Q 1734 435 2029 435 
z
" transform="scale(0.015625)"/>
       </defs>
       <use xlink:href="#Sarasa-Gothic-SC-Regular-36"/>
       <use xlink:href="#Sarasa-Gothic-SC-Regular-30" x="62.299988"/>
      </g>
     </g>
    </g>
    <g id="text_8">
     <!-- Days -->
     <g transform="translate(224.365469 335.174625)scale(0.1 -0.1)">
      <defs>
       <path id="Sarasa-Gothic-SC-Regular-44" d="M 563 0 
L 563 4653 
L 2061 4653 
Q 2739 4653 3222 4374 
Q 3706 4096 3962 3577 
Q 4218 3059 4218 2336 
Q 4218 1606 3958 1084 
Q 3699 563 3203 281 
Q 2707 0 2003 0 
L 563 0 
z
M 1126 499 
L 1965 499 
Q 2541 499 2921 723 
Q 3302 947 3488 1356 
Q 3674 1766 3674 2336 
Q 3674 2899 3488 3308 
Q 3302 3718 2937 3936 
Q 2573 4154 2029 4154 
L 1126 4154 
L 1126 499 
z
" transform="scale(0.015625)"/>
       <path id="Sarasa-Gothic-SC-Regular-61" d="M 1517 -83 
Q 1184 -83 915 45 
Q 646 173 486 413 
Q 326 653 326 992 
Q 326 1229 406 1395 
Q 486 1562 620 1674 
Q 755 1786 928 1853 
Q 1101 1920 1296 1955 
Q 1491 1990 1683 2016 
Q 1920 2048 2089 2067 
Q 2259 2086 2368 2112 
Q 2477 2138 2528 2189 
Q 2579 2240 2579 2336 
L 2579 2355 
Q 2579 2688 2396 2877 
Q 2214 3066 1843 3066 
Q 1658 3066 1507 3018 
Q 1357 2970 1245 2896 
Q 1133 2822 1056 2726 
Q 979 2630 934 2534 
L 429 2720 
Q 531 2957 688 3113 
Q 845 3270 1033 3363 
Q 1222 3456 1427 3497 
Q 1632 3539 1830 3539 
Q 1958 3539 2131 3513 
Q 2304 3488 2473 3417 
Q 2643 3347 2790 3212 
Q 2938 3078 3027 2854 
Q 3117 2630 3117 2298 
L 3117 0 
L 2579 0 
L 2579 474 
L 2554 474 
Q 2515 390 2432 291 
Q 2349 192 2224 109 
Q 2099 26 1923 -28 
Q 1747 -83 1517 -83 
z
M 1600 403 
Q 1837 403 2019 473 
Q 2202 544 2330 669 
Q 2458 794 2518 947 
Q 2579 1101 2579 1261 
L 2579 1754 
Q 2534 1702 2355 1660 
Q 2176 1619 1971 1593 
Q 1766 1568 1658 1555 
Q 1498 1536 1354 1497 
Q 1210 1459 1101 1392 
Q 992 1325 928 1222 
Q 864 1120 864 966 
Q 864 774 960 649 
Q 1056 525 1222 464 
Q 1389 403 1600 403 
z
" transform="scale(0.015625)"/>
       <path id="Sarasa-Gothic-SC-Regular-79" d="M 838 -1312 
Q 698 -1312 592 -1289 
Q 486 -1267 448 -1248 
L 582 -774 
Q 774 -826 924 -810 
Q 1075 -794 1193 -675 
Q 1312 -557 1408 -288 
L 1510 -19 
L 218 3488 
L 800 3488 
L 1766 710 
L 1798 710 
L 2765 3488 
L 3347 3488 
L 1862 -512 
Q 1568 -1312 838 -1312 
z
" transform="scale(0.015625)"/>
       <path id="Sarasa-Gothic-SC-Regular-73" d="M 1664 -70 
Q 1126 -70 777 160 
Q 429 390 339 838 
L 845 966 
Q 986 403 1658 403 
Q 1907 403 2089 476 
Q 2272 550 2371 672 
Q 2470 794 2470 947 
Q 2470 1318 1952 1434 
L 1370 1574 
Q 896 1683 672 1923 
Q 448 2163 448 2528 
Q 448 2822 614 3049 
Q 781 3277 1069 3408 
Q 1357 3539 1728 3539 
Q 2682 3539 2963 2707 
L 2483 2573 
Q 2291 3072 1728 3072 
Q 1408 3072 1193 2925 
Q 979 2778 979 2554 
Q 979 2355 1126 2240 
Q 1274 2125 1581 2048 
L 2099 1920 
Q 2566 1805 2796 1571 
Q 3027 1338 3027 973 
Q 3027 672 2854 435 
Q 2682 198 2378 64 
Q 2074 -70 1664 -70 
z
" transform="scale(0.015625)"/>
      </defs>
      <use xlink:href="#Sarasa-Gothic-SC-Regular-44"/>
      <use xlink:href="#Sarasa-Gothic-SC-Regular-61" x="71.799988"/>
      <use xlink:href="#Sarasa-Gothic-SC-Regular-79" x="128.099976"/>
      <use xlink:href="#Sarasa-Gothic-SC-Regular-73" x="183.699966"/>
     </g>
    </g>
   </g>
   <g id="matplotlib.axis_2">
    <g id="ytick_1">
     <g id="line2d_15">
      <path d="M 57.6 295.513669 
L 414.72 295.513669 
" clip-path="url(#p127cc76c74)" style="fill: none; stroke: #b0b0b0; stroke-width: 0.8; stroke-linecap: square"/>
     </g>
     <g id="line2d_16">
      <defs>
       <path id="m9ba8469a17" d="M 0 0 
L -3.5 0 
" style="stroke: #000000; stroke-width: 0.8"/>
      </defs>
      <g>
       <use xlink:href="#m9ba8469a17" x="57.6" y="295.513669" style="stroke: #000000; stroke-width: 0.8"/>
      </g>
     </g>
     <g id="text_9">
      <!-- 0 -->
      <g transform="translate(44.35 299.148825)scale(0.1 -0.1)">
       <use xlink:href="#Sarasa-Gothic-SC-Regular-30"/>
      </g>
     </g>
    </g>
    <g id="ytick_2">
     <g id="line2d_17">
      <path d="M 57.6 263.427283 
L 414.72 263.427283 
" clip-path="url(#p127cc76c74)" style="fill: none; stroke: #b0b0b0; stroke-width: 0.8; stroke-linecap: square"/>
     </g>
     <g id="line2d_18">
      <g>
       <use xlink:href="#m9ba8469a17" x="57.6" y="263.427283" style="stroke: #000000; stroke-width: 0.8"/>
      </g>
     </g>
     <g id="text_10">
      <!-- 5000 -->
      <g transform="translate(25.779688 267.06244)scale(0.1 -0.1)">
       <use xlink:href="#Sarasa-Gothic-SC-Regular-35"/>
       <use xlink:href="#Sarasa-Gothic-SC-Regular-30" x="60.699997"/>
       <use xlink:href="#Sarasa-Gothic-SC-Regular-30" x="123.199982"/>
       <use xlink:href="#Sarasa-Gothic-SC-Regular-30" x="185.699966"/>
      </g>
     </g>
    </g>
    <g id="ytick_3">
     <g id="line2d_19">
      <path d="M 57.6 231.340897 
L 414.72 231.340897 
" clip-path="url(#p127cc76c74)" style="fill: none; stroke: #b0b0b0; stroke-width: 0.8; stroke-linecap: square"/>
     </g>
     <g id="line2d_20">
      <g>
       <use xlink:href="#m9ba8469a17" x="57.6" y="231.340897" style="stroke: #000000; stroke-width: 0.8"/>
      </g>
     </g>
     <g id="text_11">
      <!-- 10000 -->
      <g transform="translate(20.959375 234.976054)scale(0.1 -0.1)">
       <use xlink:href="#Sarasa-Gothic-SC-Regular-31"/>
       <use xlink:href="#Sarasa-Gothic-SC-Regular-30" x="46.399994"/>
       <use xlink:href="#Sarasa-Gothic-SC-Regular-30" x="108.899979"/>
       <use xlink:href="#Sarasa-Gothic-SC-Regular-30" x="171.399963"/>
       <use xlink:href="#Sarasa-Gothic-SC-Regular-30" x="233.899948"/>
      </g>
     </g>
    </g>
    <g id="ytick_4">
     <g id="line2d_21">
      <path d="M 57.6 199.254512 
L 414.72 199.254512 
" clip-path="url(#p127cc76c74)" style="fill: none; stroke: #b0b0b0; stroke-width: 0.8; stroke-linecap: square"/>
     </g>
     <g id="line2d_22">
      <g>
       <use xlink:href="#m9ba8469a17" x="57.6" y="199.254512" style="stroke: #000000; stroke-width: 0.8"/>
      </g>
     </g>
     <g id="text_12">
      <!-- 15000 -->
      <g transform="translate(21.139063 202.889668)scale(0.1 -0.1)">
       <use xlink:href="#Sarasa-Gothic-SC-Regular-31"/>
       <use xlink:href="#Sarasa-Gothic-SC-Regular-35" x="46.399994"/>
       <use xlink:href="#Sarasa-Gothic-SC-Regular-30" x="107.099991"/>
       <use xlink:href="#Sarasa-Gothic-SC-Regular-30" x="169.599976"/>
       <use xlink:href="#Sarasa-Gothic-SC-Regular-30" x="232.09996"/>
      </g>
     </g>
    </g>
    <g id="ytick_5">
     <g id="line2d_23">
      <path d="M 57.6 167.168126 
L 414.72 167.168126 
" clip-path="url(#p127cc76c74)" style="fill: none; stroke: #b0b0b0; stroke-width: 0.8; stroke-linecap: square"/>
     </g>
     <g id="line2d_24">
      <g>
       <use xlink:href="#m9ba8469a17" x="57.6" y="167.168126" style="stroke: #000000; stroke-width: 0.8"/>
      </g>
     </g>
     <g id="text_13">
      <!-- 20000 -->
      <g transform="translate(19.55 170.803282)scale(0.1 -0.1)">
       <use xlink:href="#Sarasa-Gothic-SC-Regular-32"/>
       <use xlink:href="#Sarasa-Gothic-SC-Regular-30" x="60.499985"/>
       <use xlink:href="#Sarasa-Gothic-SC-Regular-30" x="122.999969"/>
       <use xlink:href="#Sarasa-Gothic-SC-Regular-30" x="185.499954"/>
       <use xlink:href="#Sarasa-Gothic-SC-Regular-30" x="247.999939"/>
      </g>
     </g>
    </g>
    <g id="ytick_6">
     <g id="line2d_25">
      <path d="M 57.6 135.08174 
L 414.72 135.08174 
" clip-path="url(#p127cc76c74)" style="fill: none; stroke: #b0b0b0; stroke-width: 0.8; stroke-linecap: square"/>
     </g>
     <g id="line2d_26">
      <g>
       <use xlink:href="#m9ba8469a17" x="57.6" y="135.08174" style="stroke: #000000; stroke-width: 0.8"/>
      </g>
     </g>
     <g id="text_14">
      <!-- 25000 -->
      <g transform="translate(19.729688 138.716896)scale(0.1 -0.1)">
       <use xlink:href="#Sarasa-Gothic-SC-Regular-32"/>
       <use xlink:href="#Sarasa-Gothic-SC-Regular-35" x="60.499985"/>
       <use xlink:href="#Sarasa-Gothic-SC-Regular-30" x="121.199982"/>
       <use xlink:href="#Sarasa-Gothic-SC-Regular-30" x="183.699966"/>
       <use xlink:href="#Sarasa-Gothic-SC-Regular-30" x="246.199951"/>
      </g>
     </g>
    </g>
    <g id="ytick_7">
     <g id="line2d_27">
      <path d="M 57.6 102.995354 
L 414.72 102.995354 
" clip-path="url(#p127cc76c74)" style="fill: none; stroke: #b0b0b0; stroke-width: 0.8; stroke-linecap: square"/>
     </g>
     <g id="line2d_28">
      <g>
       <use xlink:href="#m9ba8469a17" x="57.6" y="102.995354" style="stroke: #000000; stroke-width: 0.8"/>
      </g>
     </g>
     <g id="text_15">
      <!-- 30000 -->
      <g transform="translate(19.240625 106.63051)scale(0.1 -0.1)">
       <use xlink:href="#Sarasa-Gothic-SC-Regular-33"/>
       <use xlink:href="#Sarasa-Gothic-SC-Regular-30" x="63.599991"/>
       <use xlink:href="#Sarasa-Gothic-SC-Regular-30" x="126.099976"/>
       <use xlink:href="#Sarasa-Gothic-SC-Regular-30" x="188.59996"/>
       <use xlink:href="#Sarasa-Gothic-SC-Regular-30" x="251.099945"/>
      </g>
     </g>
    </g>
    <g id="ytick_8">
     <g id="line2d_29">
      <path d="M 57.6 70.908968 
L 414.72 70.908968 
" clip-path="url(#p127cc76c74)" style="fill: none; stroke: #b0b0b0; stroke-width: 0.8; stroke-linecap: square"/>
     </g>
     <g id="line2d_30">
      <g>
       <use xlink:href="#m9ba8469a17" x="57.6" y="70.908968" style="stroke: #000000; stroke-width: 0.8"/>
      </g>
     </g>
     <g id="text_16">
      <!-- 35000 -->
      <g transform="translate(19.420313 74.544124)scale(0.1 -0.1)">
       <use xlink:href="#Sarasa-Gothic-SC-Regular-33"/>
       <use xlink:href="#Sarasa-Gothic-SC-Regular-35" x="63.599991"/>
       <use xlink:href="#Sarasa-Gothic-SC-Regular-30" x="124.299988"/>
       <use xlink:href="#Sarasa-Gothic-SC-Regular-30" x="186.799973"/>
       <use xlink:href="#Sarasa-Gothic-SC-Regular-30" x="249.299957"/>
      </g>
     </g>
    </g>
    <g id="text_17">
     <!-- Number of Cases -->
     <g transform="translate(13.190625 215.573312)rotate(-90)scale(0.1 -0.1)">
      <defs>
       <path id="Sarasa-Gothic-SC-Regular-4e" d="M 563 0 
L 563 4653 
L 1107 4653 
L 3654 992 
L 3699 992 
L 3699 4653 
L 4256 4653 
L 4256 0 
L 3712 0 
L 1171 3654 
L 1126 3654 
L 1126 0 
L 563 0 
z
" transform="scale(0.015625)"/>
       <path id="Sarasa-Gothic-SC-Regular-75" d="M 1619 -45 
Q 1293 -45 1037 99 
Q 781 243 637 534 
Q 493 826 493 1274 
L 493 3488 
L 1030 3488 
L 1030 1312 
Q 1030 928 1244 701 
Q 1459 474 1792 474 
Q 1939 474 2099 531 
Q 2259 589 2393 707 
Q 2528 826 2608 1005 
Q 2688 1184 2688 1427 
L 2688 3488 
L 3226 3488 
L 3226 0 
L 2688 0 
L 2688 589 
L 2656 589 
Q 2573 416 2432 272 
Q 2291 128 2086 41 
Q 1882 -45 1619 -45 
z
" transform="scale(0.015625)"/>
       <path id="Sarasa-Gothic-SC-Regular-6d" d="M 493 0 
L 493 3488 
L 1011 3488 
L 1011 2944 
L 1056 2944 
Q 1165 3226 1408 3382 
Q 1651 3539 1990 3539 
Q 2656 3539 2925 2944 
L 2963 2944 
Q 3098 3213 3366 3376 
Q 3635 3539 4006 3539 
Q 4320 3539 4560 3408 
Q 4800 3277 4937 3011 
Q 5075 2746 5075 2336 
L 5075 0 
L 4538 0 
L 4538 2336 
Q 4538 2598 4438 2755 
Q 4339 2912 4179 2982 
Q 4019 3053 3827 3053 
Q 3584 3053 3411 2953 
Q 3238 2854 3145 2675 
Q 3053 2496 3053 2272 
L 3053 0 
L 2509 0 
L 2509 2394 
Q 2509 2688 2317 2870 
Q 2125 3053 1818 3053 
Q 1606 3053 1427 2941 
Q 1248 2829 1139 2633 
Q 1030 2438 1030 2182 
L 1030 0 
L 493 0 
z
" transform="scale(0.015625)"/>
       <path id="Sarasa-Gothic-SC-Regular-62" d="M 2163 -70 
Q 1914 -70 1738 -3 
Q 1562 64 1446 160 
Q 1331 256 1260 361 
Q 1190 467 1146 538 
L 1082 538 
L 1082 0 
L 563 0 
L 563 4653 
L 1101 4653 
L 1101 2938 
L 1146 2938 
Q 1190 3002 1257 3104 
Q 1325 3206 1440 3305 
Q 1555 3405 1728 3472 
Q 1901 3539 2157 3539 
Q 2598 3539 2934 3318 
Q 3270 3098 3459 2691 
Q 3648 2285 3648 1734 
Q 3648 1184 3459 777 
Q 3270 371 2934 150 
Q 2598 -70 2163 -70 
z
M 2093 410 
Q 2342 410 2534 512 
Q 2726 614 2854 796 
Q 2982 979 3046 1222 
Q 3110 1466 3110 1747 
Q 3110 2022 3046 2259 
Q 2982 2496 2854 2675 
Q 2726 2854 2537 2953 
Q 2349 3053 2093 3053 
Q 1766 3053 1542 2889 
Q 1318 2726 1203 2432 
Q 1088 2138 1088 1747 
Q 1088 1350 1206 1049 
Q 1325 749 1545 579 
Q 1766 410 2093 410 
z
" transform="scale(0.015625)"/>
       <path id="Sarasa-Gothic-SC-Regular-65" d="M 1952 -70 
Q 1453 -70 1088 154 
Q 723 378 524 781 
Q 326 1184 326 1718 
Q 326 2253 524 2662 
Q 723 3072 1075 3305 
Q 1427 3539 1901 3539 
Q 2118 3539 2332 3481 
Q 2547 3424 2739 3296 
Q 2931 3168 3081 2966 
Q 3232 2765 3315 2473 
Q 3398 2182 3398 1792 
L 3398 1562 
L 864 1562 
Q 877 1190 1017 931 
Q 1158 672 1398 541 
Q 1638 410 1952 410 
Q 2272 410 2499 547 
Q 2726 685 2829 954 
L 3347 806 
Q 3226 416 2854 173 
Q 2483 -70 1952 -70 
z
M 864 2029 
L 2854 2029 
Q 2854 2323 2736 2553 
Q 2618 2784 2403 2918 
Q 2189 3053 1901 3053 
Q 1594 3053 1370 2912 
Q 1146 2771 1014 2534 
Q 883 2298 864 2029 
z
" transform="scale(0.015625)"/>
       <path id="Sarasa-Gothic-SC-Regular-72" d="M 493 0 
L 493 3488 
L 1011 3488 
L 1011 2963 
L 1043 2963 
Q 1139 3226 1388 3386 
Q 1638 3546 1952 3546 
Q 2112 3546 2234 3539 
L 2234 2989 
Q 2208 2995 2112 3011 
Q 2016 3027 1907 3027 
Q 1658 3027 1456 2921 
Q 1254 2816 1142 2630 
Q 1030 2445 1030 2208 
L 1030 0 
L 493 0 
z
" transform="scale(0.015625)"/>
       <path id="Sarasa-Gothic-SC-Regular-20" transform="scale(0.015625)"/>
       <path id="Sarasa-Gothic-SC-Regular-6f" d="M 1907 -70 
Q 1434 -70 1078 154 
Q 723 378 524 781 
Q 326 1184 326 1728 
Q 326 2272 524 2678 
Q 723 3085 1078 3312 
Q 1434 3539 1907 3539 
Q 2381 3539 2736 3312 
Q 3091 3085 3289 2678 
Q 3488 2272 3488 1728 
Q 3488 1184 3289 781 
Q 3091 378 2736 154 
Q 2381 -70 1907 -70 
z
M 1443 515 
Q 1638 410 1910 410 
Q 2182 410 2377 515 
Q 2573 621 2701 803 
Q 2829 986 2893 1226 
Q 2957 1466 2957 1728 
Q 2957 1990 2893 2230 
Q 2829 2470 2701 2656 
Q 2573 2842 2377 2947 
Q 2182 3053 1907 3053 
Q 1638 3053 1443 2947 
Q 1248 2842 1117 2656 
Q 986 2470 925 2230 
Q 864 1990 864 1728 
Q 864 1466 925 1226 
Q 986 986 1117 803 
Q 1248 621 1443 515 
z
" transform="scale(0.015625)"/>
       <path id="Sarasa-Gothic-SC-Regular-66" d="M 730 0 
L 730 3034 
L 166 3034 
L 166 3488 
L 730 3488 
L 730 3974 
Q 730 4198 810 4368 
Q 890 4538 1030 4650 
Q 1171 4762 1347 4816 
Q 1523 4870 1709 4870 
Q 2016 4870 2221 4781 
L 2061 4320 
Q 2022 4333 1952 4352 
Q 1882 4371 1766 4371 
Q 1498 4371 1379 4236 
Q 1261 4102 1261 3846 
L 1261 3488 
L 2048 3488 
L 2048 3034 
L 1261 3034 
L 1261 0 
L 730 0 
z
" transform="scale(0.015625)"/>
       <path id="Sarasa-Gothic-SC-Regular-43" d="M 2438 -64 
Q 1990 -64 1616 102 
Q 1242 269 963 579 
Q 685 890 534 1331 
Q 384 1773 384 2326 
Q 384 2880 534 3321 
Q 685 3763 963 4073 
Q 1242 4384 1616 4550 
Q 1990 4717 2438 4717 
Q 2906 4717 3299 4537 
Q 3693 4358 3958 4019 
Q 4224 3680 4307 3200 
L 3744 3200 
Q 3680 3520 3485 3741 
Q 3290 3962 3018 4077 
Q 2746 4192 2438 4192 
Q 2118 4192 1843 4070 
Q 1568 3949 1363 3712 
Q 1158 3475 1043 3129 
Q 928 2784 928 2329 
Q 928 1875 1043 1526 
Q 1158 1178 1363 941 
Q 1568 704 1843 582 
Q 2118 461 2438 461 
Q 2746 461 3018 576 
Q 3290 691 3485 912 
Q 3680 1133 3744 1453 
L 4307 1453 
Q 4224 979 3958 640 
Q 3693 301 3299 118 
Q 2906 -64 2438 -64 
z
" transform="scale(0.015625)"/>
      </defs>
      <use xlink:href="#Sarasa-Gothic-SC-Regular-4e"/>
      <use xlink:href="#Sarasa-Gothic-SC-Regular-75" x="75.199982"/>
      <use xlink:href="#Sarasa-Gothic-SC-Regular-6d" x="133.199966"/>
      <use xlink:href="#Sarasa-Gothic-SC-Regular-62" x="220.09996"/>
      <use xlink:href="#Sarasa-Gothic-SC-Regular-65" x="282.099945"/>
      <use xlink:href="#Sarasa-Gothic-SC-Regular-72" x="340.299942"/>
      <use xlink:href="#Sarasa-Gothic-SC-Regular-20" x="377.499939"/>
      <use xlink:href="#Sarasa-Gothic-SC-Regular-6f" x="405.59993"/>
      <use xlink:href="#Sarasa-Gothic-SC-Regular-66" x="465.199921"/>
      <use xlink:href="#Sarasa-Gothic-SC-Regular-20" x="501.199905"/>
      <use xlink:href="#Sarasa-Gothic-SC-Regular-43" x="529.299896"/>
      <use xlink:href="#Sarasa-Gothic-SC-Regular-61" x="601.999878"/>
      <use xlink:href="#Sarasa-Gothic-SC-Regular-73" x="658.299866"/>
      <use xlink:href="#Sarasa-Gothic-SC-Regular-65" x="710.499863"/>
      <use xlink:href="#Sarasa-Gothic-SC-Regular-73" x="768.69986"/>
     </g>
    </g>
   </g>
   <g id="line2d_31">
    <path d="M 73.832727 292.823331 
L 80.45833 292.052766 
L 87.083933 291.0656 
L 93.709536 289.803599 
L 100.335139 288.194575 
L 106.960742 286.150114 
L 113.586345 283.563646 
L 120.211948 280.309414 
L 126.837551 276.243214 
L 133.463154 271.206095 
L 140.088757 265.032487 
L 146.71436 257.564217 
L 153.339963 248.671305 
L 159.965566 238.278919 
L 166.591169 226.397341 
L 173.216772 213.148607 
L 179.842375 198.781021 
L 186.467978 183.662943 
L 193.093581 168.25164 
L 199.719184 153.040937 
L 206.344787 138.499537 
L 212.97039 125.015795 
L 219.595993 112.861987 
L 226.221596 102.183492 
L 232.847199 93.009965 
L 239.472801 85.280398 
L 246.098404 78.873039 
L 252.724007 73.633252 
L 259.34961 69.395593 
L 265.975213 65.999071 
L 272.600816 63.296291 
L 279.226419 61.15787 
L 285.852022 59.473641 
L 292.477625 58.151879 
L 299.103228 57.11749 
L 305.728831 56.309775 
L 312.354434 55.680144 
L 318.980037 55.189991 
L 325.60564 54.808817 
L 332.231243 54.512633 
L 338.856846 54.282633 
L 345.482449 54.104115 
L 352.108052 53.96561 
L 358.733655 53.858179 
L 365.359258 53.774871 
L 371.984861 53.710281 
L 378.610464 53.660209 
L 385.236067 53.621397 
L 391.86167 53.591314 
L 398.487273 53.568 
" clip-path="url(#p127cc76c74)" style="fill: none; stroke: #ff0000; stroke-width: 1.5; stroke-linecap: square"/>
   </g>
   <g id="patch_3">
    <path d="M 57.6 307.584 
L 57.6 41.472 
" style="fill: none; stroke: #000000; stroke-width: 0.8; stroke-linejoin: miter; stroke-linecap: square"/>
   </g>
   <g id="patch_4">
    <path d="M 414.72 307.584 
L 414.72 41.472 
" style="fill: none; stroke: #000000; stroke-width: 0.8; stroke-linejoin: miter; stroke-linecap: square"/>
   </g>
   <g id="patch_5">
    <path d="M 57.6 307.584 
L 414.72 307.584 
" style="fill: none; stroke: #000000; stroke-width: 0.8; stroke-linejoin: miter; stroke-linecap: square"/>
   </g>
   <g id="patch_6">
    <path d="M 57.6 41.472 
L 414.72 41.472 
" style="fill: none; stroke: #000000; stroke-width: 0.8; stroke-linejoin: miter; stroke-linecap: square"/>
   </g>
   <g id="text_18">
    <!-- 吉林省累计确诊病例数预测 (2022-04-14) -->
    <g transform="translate(123.73125 35.472)scale(0.12 -0.12)">
     <defs>
      <path id="Sarasa-Gothic-SC-Regular-5409" d="M 4787 1466 
L 1651 1466 
L 1651 198 
L 4787 198 
L 4787 1466 
z
M 1171 -550 
L 1171 1901 
L 5293 1901 
L 5293 -550 
L 4787 -550 
L 4787 -243 
L 1651 -243 
L 1651 -550 
L 1171 -550 
z
M 5965 4013 
L 3430 4013 
L 3430 3072 
L 5645 3072 
L 5645 2618 
L 819 2618 
L 819 3072 
L 2944 3072 
L 2944 4013 
L 422 4013 
L 422 4461 
L 2944 4461 
L 2944 5357 
L 3430 5357 
L 3430 4461 
L 5965 4461 
L 5965 4013 
z
" transform="scale(0.015625)"/>
      <path id="Sarasa-Gothic-SC-Regular-6797" d="M 3021 2221 
L 2707 1811 
Q 2637 1926 2515 2099 
Q 2394 2272 2253 2461 
Q 2112 2650 1978 2816 
L 1978 -480 
L 1510 -480 
L 1510 2643 
Q 1306 2067 1030 1545 
Q 755 1024 467 685 
Q 422 794 348 918 
Q 275 1043 211 1126 
Q 454 1395 684 1792 
Q 915 2189 1110 2640 
Q 1306 3091 1427 3533 
L 371 3533 
L 371 3987 
L 1510 3987 
L 1510 5357 
L 1978 5357 
L 1978 3987 
L 2886 3987 
L 2886 3533 
L 1978 3533 
L 1978 3386 
Q 2054 3309 2204 3149 
Q 2355 2989 2521 2800 
Q 2688 2611 2825 2451 
Q 2963 2291 3021 2221 
z
M 5990 3533 
L 4902 3533 
Q 5050 3027 5251 2537 
Q 5453 2048 5693 1635 
Q 5933 1222 6189 941 
Q 6106 877 5997 771 
Q 5888 666 5824 570 
Q 5530 941 5261 1497 
Q 4992 2054 4781 2682 
L 4781 -480 
L 4314 -480 
L 4314 2662 
Q 4058 2003 3715 1417 
Q 3373 832 2995 454 
Q 2950 550 2867 668 
Q 2784 787 2714 870 
Q 3021 1171 3305 1596 
Q 3590 2022 3827 2521 
Q 4064 3021 4211 3533 
L 3162 3533 
L 3162 3987 
L 4314 3987 
L 4314 5357 
L 4781 5357 
L 4781 3987 
L 5990 3987 
L 5990 3533 
z
" transform="scale(0.015625)"/>
      <path id="Sarasa-Gothic-SC-Regular-7701" d="M 1709 4992 
L 2176 4864 
Q 1952 4390 1606 3961 
Q 1261 3533 909 3232 
Q 845 3296 717 3382 
Q 589 3469 499 3514 
Q 870 3782 1190 4172 
Q 1510 4563 1709 4992 
z
M 4806 1875 
L 4806 2342 
L 1933 2342 
L 1933 1875 
L 4806 1875 
z
M 1933 186 
L 4806 186 
L 4806 685 
L 1933 685 
L 1933 186 
z
M 1933 1530 
L 1933 1037 
L 4806 1037 
L 4806 1530 
L 1933 1530 
z
M 4486 4192 
L 4928 3987 
Q 4557 3565 4003 3254 
Q 3450 2944 2790 2720 
L 5274 2720 
L 5274 -454 
L 4806 -454 
L 4806 -186 
L 1933 -186 
L 1933 -480 
L 1472 -480 
L 1472 2362 
Q 1242 2317 1011 2272 
Q 781 2227 550 2195 
Q 506 2272 416 2403 
Q 326 2534 256 2611 
Q 973 2701 1670 2848 
Q 2368 2995 2970 3226 
L 2906 3226 
L 2906 5350 
L 3373 5350 
L 3373 3405 
Q 3712 3565 3997 3760 
Q 4282 3955 4486 4192 
z
M 4243 4794 
L 4621 5030 
Q 4877 4832 5149 4592 
Q 5421 4352 5657 4112 
Q 5894 3872 6035 3667 
L 5632 3398 
Q 5498 3597 5270 3843 
Q 5043 4090 4774 4339 
Q 4506 4589 4243 4794 
z
" transform="scale(0.015625)"/>
      <path id="Sarasa-Gothic-SC-Regular-7d2f" d="M 1824 813 
L 2246 640 
Q 2042 454 1779 272 
Q 1517 90 1238 -73 
Q 960 -237 710 -358 
Q 646 -294 531 -198 
Q 416 -102 339 -45 
Q 736 115 1142 345 
Q 1549 576 1824 813 
z
M 1357 3866 
L 1357 3334 
L 2963 3334 
L 2963 3866 
L 1357 3866 
z
M 1357 4749 
L 1357 4230 
L 2963 4230 
L 2963 4749 
L 1357 4749 
z
M 5082 4230 
L 5082 4749 
L 3424 4749 
L 3424 4230 
L 5082 4230 
z
M 5082 3334 
L 5082 3866 
L 3424 3866 
L 3424 3334 
L 5082 3334 
z
M 5114 1216 
L 3469 1126 
L 3469 19 
Q 3469 -166 3421 -265 
Q 3373 -365 3232 -422 
Q 3091 -474 2870 -483 
Q 2650 -493 2323 -493 
Q 2310 -390 2259 -272 
Q 2208 -154 2157 -58 
Q 2400 -64 2601 -67 
Q 2803 -70 2867 -64 
Q 2938 -58 2957 -42 
Q 2976 -26 2976 32 
L 2976 1101 
Q 2310 1069 1907 1046 
Q 1504 1024 1280 1005 
Q 1056 986 950 970 
Q 845 954 774 928 
Q 768 998 729 1132 
Q 691 1267 659 1350 
Q 813 1363 1017 1424 
Q 1222 1485 1498 1587 
Q 1645 1632 1942 1753 
Q 2240 1875 2605 2042 
Q 2157 2016 1885 1993 
Q 1613 1971 1459 1955 
Q 1306 1939 1235 1926 
Q 1165 1914 1120 1894 
Q 1107 1965 1065 2096 
Q 1024 2227 986 2310 
Q 1082 2323 1187 2361 
Q 1293 2400 1421 2464 
Q 1523 2509 1760 2643 
Q 1997 2778 2259 2957 
L 909 2957 
L 909 5133 
L 5549 5133 
L 5549 2957 
L 2938 2957 
Q 2707 2790 2473 2643 
Q 2240 2496 1997 2368 
L 3418 2445 
Q 3821 2656 4179 2874 
L 4544 2586 
Q 3942 2240 3334 1958 
Q 2726 1677 2131 1453 
L 4749 1574 
Q 4627 1690 4496 1805 
Q 4365 1920 4243 2010 
L 4582 2246 
Q 4806 2086 5040 1878 
Q 5274 1670 5475 1465 
Q 5677 1261 5798 1101 
L 5446 826 
Q 5382 915 5299 1014 
Q 5216 1114 5114 1216 
z
M 3981 563 
L 4320 813 
Q 4589 691 4889 531 
Q 5190 371 5462 208 
Q 5734 45 5914 -96 
L 5549 -378 
Q 5382 -243 5116 -73 
Q 4851 96 4553 265 
Q 4256 435 3981 563 
z
" transform="scale(0.015625)"/>
      <path id="Sarasa-Gothic-SC-Regular-8ba1" d="M 2221 4288 
L 1901 3936 
Q 1798 4077 1628 4253 
Q 1459 4429 1267 4608 
Q 1075 4787 896 4934 
L 1203 5242 
Q 1382 5101 1574 4928 
Q 1766 4755 1939 4588 
Q 2112 4422 2221 4288 
z
M 1805 640 
L 2586 1165 
Q 2611 1075 2662 947 
Q 2714 819 2739 749 
Q 2291 435 2019 236 
Q 1747 38 1596 -77 
Q 1446 -192 1376 -256 
Q 1306 -320 1267 -371 
Q 1235 -275 1158 -144 
Q 1082 -13 1018 64 
Q 1107 128 1216 262 
Q 1325 397 1325 595 
L 1325 2886 
L 320 2886 
L 320 3354 
L 1805 3354 
L 1805 640 
z
M 6118 3238 
L 6118 2758 
L 4499 2758 
L 4499 -493 
L 4006 -493 
L 4006 2758 
L 2381 2758 
L 2381 3238 
L 4006 3238 
L 4006 5331 
L 4499 5331 
L 4499 3238 
L 6118 3238 
z
" transform="scale(0.015625)"/>
      <path id="Sarasa-Gothic-SC-Regular-786e" d="M 1914 2630 
L 1210 2630 
L 1210 742 
L 1914 742 
L 1914 2630 
z
M 2317 314 
L 1210 314 
L 1210 -198 
L 800 -198 
L 800 2106 
Q 723 1965 643 1837 
Q 563 1709 474 1594 
Q 448 1677 377 1840 
Q 307 2003 250 2099 
Q 582 2554 803 3203 
Q 1024 3853 1146 4576 
L 384 4576 
L 384 5018 
L 2522 5018 
L 2522 4576 
L 1594 4576 
Q 1446 3776 1203 3053 
L 2317 3053 
L 2317 314 
z
M 4544 1472 
L 5459 1472 
L 5459 2234 
L 4544 2234 
L 4544 1472 
z
M 3264 1472 
L 4115 1472 
L 4115 2234 
L 3283 2234 
L 3283 2042 
Q 3283 1760 3264 1472 
z
M 4710 4422 
L 3571 4422 
Q 3475 4243 3369 4067 
Q 3264 3891 3149 3731 
L 4243 3731 
Q 4358 3872 4486 4057 
Q 4614 4243 4710 4422 
z
M 3283 3322 
L 3283 2618 
L 4115 2618 
L 4115 3322 
L 3283 3322 
z
M 5459 2618 
L 5459 3322 
L 4544 3322 
L 4544 2618 
L 5459 2618 
z
M 5914 3731 
L 5914 83 
Q 5914 -102 5869 -204 
Q 5824 -307 5702 -358 
Q 5581 -416 5379 -425 
Q 5178 -435 4877 -435 
Q 4851 -224 4755 -13 
Q 4960 -19 5133 -22 
Q 5306 -26 5357 -19 
Q 5459 -19 5459 90 
L 5459 1056 
L 4544 1056 
L 4544 -256 
L 4115 -256 
L 4115 1056 
L 3213 1056 
Q 3149 640 2985 233 
Q 2822 -173 2515 -493 
Q 2464 -435 2349 -352 
Q 2234 -269 2150 -230 
Q 2458 90 2605 480 
Q 2752 870 2797 1276 
Q 2842 1683 2842 2042 
L 2842 3341 
Q 2758 3251 2681 3168 
Q 2605 3085 2522 3008 
Q 2483 3078 2393 3190 
Q 2304 3302 2234 3366 
Q 2643 3725 2985 4259 
Q 3328 4794 3533 5376 
L 3949 5267 
Q 3904 5152 3862 5043 
Q 3821 4934 3770 4826 
L 4986 4826 
L 5056 4845 
L 5357 4640 
Q 5248 4422 5081 4179 
Q 4915 3936 4749 3731 
L 5914 3731 
z
" transform="scale(0.015625)"/>
      <path id="Sarasa-Gothic-SC-Regular-8bca" d="M 2125 4352 
L 1798 4006 
Q 1702 4134 1545 4297 
Q 1389 4461 1209 4630 
Q 1030 4800 858 4934 
L 1158 5235 
Q 1331 5107 1516 4947 
Q 1702 4787 1862 4633 
Q 2022 4480 2125 4352 
z
M 1747 646 
L 2470 1146 
Q 2490 1043 2534 924 
Q 2579 806 2611 736 
Q 2189 435 1933 249 
Q 1677 64 1533 -41 
Q 1389 -147 1325 -204 
Q 1261 -262 1222 -314 
Q 1178 -243 1085 -144 
Q 992 -45 922 6 
Q 1018 90 1149 266 
Q 1280 442 1280 691 
L 1280 2899 
L 320 2899 
L 320 3354 
L 1747 3354 
L 1747 646 
z
M 5498 1773 
L 5920 1594 
Q 5485 813 4678 301 
Q 3872 -211 2816 -493 
Q 2771 -403 2688 -284 
Q 2605 -166 2528 -83 
Q 3539 141 4320 605 
Q 5101 1069 5498 1773 
z
M 4237 3565 
L 4614 3405 
Q 4307 3027 3862 2688 
Q 3418 2349 2989 2125 
Q 2931 2202 2851 2294 
Q 2771 2387 2682 2451 
Q 2957 2579 3248 2755 
Q 3539 2931 3798 3142 
Q 4058 3354 4237 3565 
z
M 4826 2688 
L 5222 2509 
Q 4979 2163 4640 1849 
Q 4301 1536 3904 1280 
Q 3507 1024 3091 838 
Q 2970 1030 2790 1184 
Q 3187 1344 3571 1577 
Q 3955 1811 4284 2096 
Q 4614 2381 4826 2688 
z
M 4090 5363 
L 4525 5229 
Q 4499 5165 4467 5107 
Q 4435 5050 4410 4992 
Q 4627 4685 4934 4387 
Q 5242 4090 5584 3840 
Q 5926 3590 6253 3430 
Q 6170 3366 6067 3251 
Q 5965 3136 5914 3046 
Q 5619 3213 5308 3459 
Q 4998 3706 4707 4000 
Q 4416 4294 4173 4608 
Q 3514 3616 2445 2995 
Q 2394 3066 2294 3168 
Q 2195 3270 2125 3328 
Q 2790 3693 3305 4230 
Q 3821 4768 4090 5363 
z
" transform="scale(0.015625)"/>
      <path id="Sarasa-Gothic-SC-Regular-75c5" d="M 1203 2944 
L 832 2752 
Q 781 2989 640 3325 
Q 499 3661 339 3942 
L 691 4109 
Q 806 3930 908 3718 
Q 1011 3507 1091 3305 
Q 1171 3104 1203 2944 
z
M 2035 3226 
L 2035 3642 
L 6054 3642 
L 6054 3226 
L 4198 3226 
L 4198 2573 
L 5875 2573 
L 5875 51 
Q 5875 -128 5827 -233 
Q 5779 -339 5651 -397 
Q 5510 -454 5289 -464 
Q 5069 -474 4730 -474 
Q 4717 -378 4672 -256 
Q 4627 -134 4576 -51 
Q 4832 -58 5033 -58 
Q 5235 -58 5299 -51 
Q 5370 -51 5395 -28 
Q 5421 -6 5421 58 
L 5421 2157 
L 4186 2157 
Q 4179 2074 4166 1987 
Q 4154 1901 4134 1811 
Q 4333 1638 4547 1433 
Q 4762 1229 4954 1030 
Q 5146 832 5267 678 
L 4954 410 
Q 4800 614 4541 889 
Q 4282 1165 4006 1421 
Q 3885 1133 3645 857 
Q 3405 582 2989 358 
Q 2944 429 2857 525 
Q 2771 621 2701 685 
Q 3104 877 3321 1123 
Q 3539 1370 3632 1638 
Q 3725 1907 3744 2157 
L 2611 2157 
L 2611 -493 
L 2176 -493 
L 2176 2573 
L 3757 2573 
L 3757 3226 
L 2035 3226 
z
M 4109 4627 
L 6118 4627 
L 6118 4198 
L 1766 4198 
L 1766 2733 
Q 1766 2362 1731 1936 
Q 1696 1510 1590 1075 
Q 1485 640 1286 237 
Q 1088 -166 762 -493 
Q 710 -422 598 -320 
Q 486 -218 416 -173 
Q 806 224 992 710 
Q 1178 1197 1248 1683 
Q 1030 1555 816 1430 
Q 602 1306 403 1197 
L 237 1632 
Q 454 1722 726 1862 
Q 998 2003 1293 2157 
Q 1312 2464 1312 2739 
L 1312 4627 
L 3558 4627 
Q 3514 4781 3456 4953 
Q 3398 5126 3341 5267 
L 3840 5370 
Q 3910 5190 3987 4992 
Q 4064 4794 4109 4627 
z
" transform="scale(0.015625)"/>
      <path id="Sarasa-Gothic-SC-Regular-4f8b" d="M 1376 5344 
L 1805 5222 
Q 1715 4909 1606 4598 
Q 1498 4288 1370 3987 
L 1370 -480 
L 922 -480 
L 922 3078 
Q 813 2893 701 2723 
Q 589 2554 467 2406 
Q 442 2483 368 2640 
Q 294 2797 230 2886 
Q 602 3341 896 3993 
Q 1190 4646 1376 5344 
z
M 1914 4550 
L 1914 4998 
L 4122 4998 
L 4122 4550 
L 3046 4550 
Q 3002 4307 2944 4064 
Q 2886 3821 2816 3590 
L 3635 3590 
L 3712 3603 
L 3987 3533 
Q 3827 2010 3347 1011 
Q 2867 13 2131 -499 
Q 2086 -410 2000 -304 
Q 1914 -198 1830 -134 
Q 2534 307 2982 1280 
Q 2842 1427 2656 1580 
Q 2470 1734 2304 1862 
L 2554 2182 
Q 2701 2080 2864 1955 
Q 3027 1830 3162 1715 
Q 3283 2035 3369 2396 
Q 3456 2758 3514 3149 
L 2688 3149 
Q 2541 2720 2365 2342 
Q 2189 1965 1978 1664 
Q 1920 1722 1808 1814 
Q 1696 1907 1613 1958 
Q 1971 2432 2211 3113 
Q 2451 3795 2592 4550 
L 1914 4550 
z
M 4826 4614 
L 4826 1062 
L 4403 1062 
L 4403 4614 
L 4826 4614 
z
M 5446 5325 
L 5894 5325 
L 5894 154 
Q 5894 -64 5833 -179 
Q 5773 -294 5638 -352 
Q 5498 -410 5254 -426 
Q 5011 -442 4640 -442 
Q 4621 -346 4579 -211 
Q 4538 -77 4486 26 
Q 4768 19 4995 16 
Q 5222 13 5299 13 
Q 5382 19 5414 48 
Q 5446 77 5446 154 
L 5446 5325 
z
" transform="scale(0.015625)"/>
      <path id="Sarasa-Gothic-SC-Regular-6570" d="M 2842 5235 
L 3238 5056 
Q 3098 4838 2950 4617 
Q 2803 4397 2669 4237 
L 2362 4384 
Q 2483 4557 2620 4800 
Q 2758 5043 2842 5235 
z
M 1344 4371 
L 979 4218 
Q 934 4384 822 4621 
Q 710 4858 582 5056 
L 928 5197 
Q 1062 5011 1180 4780 
Q 1299 4550 1344 4371 
z
M 1658 2579 
L 1658 3354 
Q 1421 3072 1123 2822 
Q 826 2573 531 2419 
Q 493 2502 419 2608 
Q 346 2714 275 2778 
Q 614 2925 944 3193 
Q 1274 3462 1510 3776 
L 339 3776 
L 339 4173 
L 1658 4173 
L 1658 5357 
L 2099 5357 
L 2099 4173 
L 3405 4173 
L 3405 3776 
L 2202 3776 
Q 2362 3686 2573 3552 
Q 2784 3418 2966 3299 
Q 3149 3181 3219 3123 
L 2957 2778 
Q 2880 2854 2736 2969 
Q 2592 3085 2422 3216 
Q 2253 3347 2099 3456 
L 2099 2579 
L 1658 2579 
z
M 2630 1664 
L 1594 1664 
Q 1523 1530 1452 1398 
Q 1382 1267 1312 1158 
Q 1491 1082 1676 995 
Q 1862 909 2035 819 
Q 2221 992 2374 1203 
Q 2528 1414 2630 1664 
z
M 2944 288 
L 2650 -26 
Q 2541 58 2400 150 
Q 2259 243 2093 333 
Q 1754 58 1350 -131 
Q 947 -320 512 -435 
Q 480 -358 416 -246 
Q 352 -134 288 -70 
Q 678 19 1036 172 
Q 1395 326 1709 544 
Q 1472 672 1219 787 
Q 966 902 730 986 
Q 832 1133 934 1305 
Q 1037 1478 1139 1664 
L 474 1664 
L 474 2067 
L 1338 2067 
Q 1389 2176 1430 2275 
Q 1472 2374 1504 2477 
L 1926 2400 
Q 1894 2317 1862 2237 
Q 1830 2157 1792 2067 
L 2835 2067 
L 2906 2086 
L 3174 1978 
Q 3053 1568 2857 1229 
Q 2662 890 2406 621 
Q 2560 538 2701 451 
Q 2842 365 2944 288 
z
M 5165 3680 
L 4141 3680 
Q 4230 3162 4368 2678 
Q 4506 2195 4685 1766 
Q 4858 2170 4976 2650 
Q 5094 3130 5165 3680 
z
M 6042 3680 
L 5619 3680 
Q 5510 2963 5344 2364 
Q 5178 1766 4922 1274 
Q 5165 832 5485 489 
Q 5805 147 6195 -64 
Q 6112 -128 6022 -237 
Q 5933 -346 5882 -435 
Q 5510 -211 5209 112 
Q 4909 435 4672 838 
Q 4390 422 4019 86 
Q 3648 -250 3155 -512 
Q 3123 -435 3040 -313 
Q 2957 -192 2893 -128 
Q 3411 128 3792 480 
Q 4173 832 4442 1286 
Q 4262 1664 4124 2093 
Q 3987 2522 3878 2995 
Q 3686 2528 3443 2157 
Q 3386 2214 3274 2307 
Q 3162 2400 3085 2445 
Q 3328 2784 3507 3235 
Q 3686 3686 3814 4214 
Q 3942 4742 4019 5293 
L 4454 5229 
Q 4416 4947 4361 4668 
Q 4307 4390 4237 4122 
L 6042 4122 
L 6042 3680 
z
" transform="scale(0.015625)"/>
      <path id="Sarasa-Gothic-SC-Regular-9884" d="M 2701 3021 
L 2995 2938 
Q 2867 2566 2726 2185 
Q 2586 1805 2458 1549 
L 2099 1638 
Q 2182 1818 2275 2067 
Q 2368 2317 2451 2573 
L 1773 2573 
L 1773 70 
Q 1773 -122 1725 -230 
Q 1677 -339 1542 -390 
Q 1402 -454 1184 -467 
Q 966 -480 634 -480 
Q 621 -378 579 -250 
Q 538 -122 486 -26 
Q 730 -32 928 -32 
Q 1126 -32 1190 -26 
Q 1261 -26 1286 -3 
Q 1312 19 1312 77 
L 1312 2573 
L 262 2573 
L 262 3002 
L 1818 3002 
Q 1555 3206 1216 3446 
Q 877 3686 582 3878 
L 845 4179 
Q 973 4096 1120 4003 
Q 1267 3910 1414 3802 
Q 1600 3968 1785 4185 
Q 1971 4403 2118 4621 
L 403 4621 
L 403 5043 
L 2426 5043 
L 2509 5069 
L 2797 4877 
Q 2598 4531 2313 4185 
Q 2029 3840 1747 3584 
Q 1914 3462 2067 3356 
Q 2221 3251 2323 3162 
L 2202 3002 
L 2630 3002 
L 2701 3021 
z
M 4730 3155 
L 4730 1882 
Q 4730 1581 4669 1261 
Q 4608 941 4425 630 
Q 4243 320 3884 41 
Q 3526 -237 2925 -461 
Q 2880 -384 2797 -281 
Q 2714 -179 2630 -115 
Q 3194 70 3523 316 
Q 3853 563 4016 832 
Q 4179 1101 4230 1373 
Q 4282 1645 4282 1888 
L 4282 3155 
L 4730 3155 
z
M 4627 582 
L 4941 864 
Q 5139 717 5363 531 
Q 5587 346 5788 166 
Q 5990 -13 6118 -154 
L 5792 -480 
Q 5670 -339 5472 -153 
Q 5274 32 5053 227 
Q 4832 422 4627 582 
z
M 2970 5069 
L 6118 5069 
L 6118 4646 
L 4845 4646 
Q 4787 4480 4729 4313 
Q 4672 4147 4614 4000 
L 5862 4000 
L 5862 992 
L 5402 992 
L 5402 3565 
L 3642 3565 
L 3642 986 
L 3200 986 
L 3200 4000 
L 4160 4000 
Q 4205 4147 4246 4316 
Q 4288 4486 4320 4646 
L 2970 4646 
L 2970 5069 
z
" transform="scale(0.015625)"/>
      <path id="Sarasa-Gothic-SC-Regular-6d4b" d="M 3110 602 
L 3405 781 
Q 3565 627 3737 444 
Q 3910 262 4057 86 
Q 4205 -90 4288 -230 
L 3987 -442 
Q 3898 -301 3754 -118 
Q 3610 64 3443 253 
Q 3277 442 3110 602 
z
M 2010 4979 
L 4147 4979 
L 4147 1018 
L 3757 1018 
L 3757 4614 
L 2387 4614 
L 2387 998 
L 2010 998 
L 2010 4979 
z
M 5530 5274 
L 5920 5274 
L 5920 64 
Q 5920 -134 5869 -236 
Q 5818 -339 5702 -390 
Q 5581 -442 5366 -458 
Q 5152 -474 4819 -467 
Q 4806 -384 4764 -269 
Q 4723 -154 4678 -70 
Q 4934 -77 5136 -77 
Q 5338 -77 5402 -70 
Q 5530 -70 5530 58 
L 5530 5274 
z
M 4659 4781 
L 5037 4781 
L 5037 979 
L 4659 979 
L 4659 4781 
z
M 2854 4160 
L 3226 4160 
L 3226 1914 
Q 3226 1594 3178 1264 
Q 3130 934 2992 614 
Q 2854 294 2592 16 
Q 2330 -262 1901 -480 
Q 1869 -416 1795 -323 
Q 1722 -230 1670 -186 
Q 2074 19 2310 265 
Q 2547 512 2662 784 
Q 2778 1056 2816 1341 
Q 2854 1626 2854 1914 
L 2854 4160 
z
M 544 4947 
L 826 5286 
Q 998 5197 1193 5078 
Q 1389 4960 1568 4841 
Q 1747 4723 1856 4621 
L 1568 4243 
Q 1459 4346 1286 4470 
Q 1114 4595 918 4723 
Q 723 4851 544 4947 
z
M 269 3232 
L 538 3565 
Q 717 3482 915 3370 
Q 1114 3258 1293 3146 
Q 1472 3034 1587 2938 
L 1312 2560 
Q 1197 2656 1017 2774 
Q 838 2893 640 3014 
Q 442 3136 269 3232 
z
M 397 -160 
Q 525 90 675 429 
Q 826 768 979 1142 
Q 1133 1517 1254 1875 
L 1638 1626 
Q 1523 1293 1385 934 
Q 1248 576 1104 230 
Q 960 -115 826 -410 
L 397 -160 
z
" transform="scale(0.015625)"/>
      <path id="Sarasa-Gothic-SC-Regular-28" d="M 1542 -947 
Q 685 314 685 1965 
Q 685 3616 1542 4870 
L 2016 4870 
Q 1798 4570 1622 4093 
Q 1446 3616 1340 3059 
Q 1235 2502 1235 1961 
Q 1235 1421 1340 864 
Q 1446 307 1622 -169 
Q 1798 -646 2016 -947 
L 1542 -947 
z
" transform="scale(0.015625)"/>
      <path id="Sarasa-Gothic-SC-Regular-2d" d="M 454 1747 
L 454 2246 
L 2490 2246 
L 2490 1747 
L 454 1747 
z
" transform="scale(0.015625)"/>
      <path id="Sarasa-Gothic-SC-Regular-29" d="M 301 -947 
Q 518 -646 694 -169 
Q 870 307 976 864 
Q 1082 1421 1082 1961 
Q 1082 2502 976 3059 
Q 870 3616 694 4093 
Q 518 4570 301 4870 
L 774 4870 
Q 1638 3616 1638 1965 
Q 1638 314 774 -947 
L 301 -947 
z
" transform="scale(0.015625)"/>
     </defs>
     <use xlink:href="#Sarasa-Gothic-SC-Regular-5409"/>
     <use xlink:href="#Sarasa-Gothic-SC-Regular-6797" x="99.999985"/>
     <use xlink:href="#Sarasa-Gothic-SC-Regular-7701" x="199.999969"/>
     <use xlink:href="#Sarasa-Gothic-SC-Regular-7d2f" x="299.999954"/>
     <use xlink:href="#Sarasa-Gothic-SC-Regular-8ba1" x="399.999939"/>
     <use xlink:href="#Sarasa-Gothic-SC-Regular-786e" x="499.999924"/>
     <use xlink:href="#Sarasa-Gothic-SC-Regular-8bca" x="599.999908"/>
     <use xlink:href="#Sarasa-Gothic-SC-Regular-75c5" x="699.999893"/>
     <use xlink:href="#Sarasa-Gothic-SC-Regular-4f8b" x="799.999878"/>
     <use xlink:href="#Sarasa-Gothic-SC-Regular-6570" x="899.999863"/>
     <use xlink:href="#Sarasa-Gothic-SC-Regular-9884" x="999.999847"/>
     <use xlink:href="#Sarasa-Gothic-SC-Regular-6d4b" x="1099.999832"/>
     <use xlink:href="#Sarasa-Gothic-SC-Regular-20" x="1199.999817"/>
     <use xlink:href="#Sarasa-Gothic-SC-Regular-28" x="1228.099808"/>
     <use xlink:href="#Sarasa-Gothic-SC-Regular-32" x="1264.299805"/>
     <use xlink:href="#Sarasa-Gothic-SC-Regular-30" x="1324.799789"/>
     <use xlink:href="#Sarasa-Gothic-SC-Regular-32" x="1387.299774"/>
     <use xlink:href="#Sarasa-Gothic-SC-Regular-32" x="1447.799759"/>
     <use xlink:href="#Sarasa-Gothic-SC-Regular-2d" x="1508.299744"/>
     <use xlink:href="#Sarasa-Gothic-SC-Regular-30" x="1554.299728"/>
     <use xlink:href="#Sarasa-Gothic-SC-Regular-34" x="1616.799713"/>
     <use xlink:href="#Sarasa-Gothic-SC-Regular-2d" x="1680.99971"/>
     <use xlink:href="#Sarasa-Gothic-SC-Regular-31" x="1726.999695"/>
     <use xlink:href="#Sarasa-Gothic-SC-Regular-34" x="1773.399689"/>
     <use xlink:href="#Sarasa-Gothic-SC-Regular-29" x="1837.599686"/>
    </g>
   </g>
   <g id="legend_1">
    <g id="patch_7">
     <path d="M 64.6 78.112625 
L 117.689062 78.112625 
Q 119.689062 78.112625 119.689062 76.112625 
L 119.689062 48.472 
Q 119.689062 46.472 117.689062 46.472 
L 64.6 46.472 
Q 62.6 46.472 62.6 48.472 
L 62.6 76.112625 
Q 62.6 78.112625 64.6 78.112625 
z
" style="fill: #ffffff; opacity: 0.8; stroke: #cccccc; stroke-linejoin: miter"/>
    </g>
    <g id="PathCollection_2">
     <g>
      <use xlink:href="#m2756936263" x="76.6" y="55.117313" style="fill: #1f77b4; stroke: #1f77b4"/>
     </g>
    </g>
    <g id="text_19">
     <!-- data -->
     <g transform="translate(94.6 57.742313)scale(0.1 -0.1)">
      <defs>
       <path id="Sarasa-Gothic-SC-Regular-64" d="M 1811 -70 
Q 1370 -70 1037 150 
Q 704 371 515 777 
Q 326 1184 326 1734 
Q 326 2285 515 2691 
Q 704 3098 1040 3318 
Q 1376 3539 1818 3539 
Q 2074 3539 2246 3472 
Q 2419 3405 2534 3305 
Q 2650 3206 2717 3104 
Q 2784 3002 2829 2938 
L 2874 2938 
L 2874 4653 
L 3411 4653 
L 3411 0 
L 2893 0 
L 2893 538 
L 2829 538 
Q 2784 467 2713 361 
Q 2643 256 2528 160 
Q 2413 64 2237 -3 
Q 2061 -70 1811 -70 
z
M 1882 410 
Q 2202 410 2426 579 
Q 2650 749 2765 1049 
Q 2880 1350 2880 1747 
Q 2880 2138 2768 2432 
Q 2656 2726 2432 2889 
Q 2208 3053 1882 3053 
Q 1626 3053 1434 2953 
Q 1242 2854 1117 2675 
Q 992 2496 928 2259 
Q 864 2022 864 1747 
Q 864 1466 928 1222 
Q 992 979 1120 796 
Q 1248 614 1440 512 
Q 1632 410 1882 410 
z
" transform="scale(0.015625)"/>
       <path id="Sarasa-Gothic-SC-Regular-74" d="M 1670 -45 
Q 1504 -45 1334 9 
Q 1165 64 1030 176 
Q 896 288 813 457 
Q 730 627 730 858 
L 730 3034 
L 198 3034 
L 198 3488 
L 730 3488 
L 730 4326 
L 1261 4326 
L 1261 3488 
L 2010 3488 
L 2010 3034 
L 1261 3034 
L 1261 998 
Q 1261 832 1302 726 
Q 1344 621 1408 566 
Q 1472 512 1555 493 
Q 1638 474 1728 474 
Q 1830 474 1965 499 
L 2074 19 
Q 1901 -45 1670 -45 
z
" transform="scale(0.015625)"/>
      </defs>
      <use xlink:href="#Sarasa-Gothic-SC-Regular-64"/>
      <use xlink:href="#Sarasa-Gothic-SC-Regular-61" x="61.999985"/>
      <use xlink:href="#Sarasa-Gothic-SC-Regular-74" x="118.299973"/>
      <use xlink:href="#Sarasa-Gothic-SC-Regular-61" x="154.59996"/>
     </g>
    </g>
    <g id="line2d_32">
     <path d="M 66.6 68.562625 
L 76.6 68.562625 
L 86.6 68.562625 
" style="fill: none; stroke: #ff0000; stroke-width: 1.5; stroke-linecap: square"/>
    </g>
    <g id="text_20">
     <!-- fit -->
     <g transform="translate(94.6 72.062625)scale(0.1 -0.1)">
      <defs>
       <path id="Sarasa-Gothic-SC-Regular-69" d="M 493 0 
L 493 3488 
L 1030 3488 
L 1030 0 
L 493 0 
z
M 765 4070 
Q 608 4070 496 4179 
Q 384 4288 384 4438 
Q 384 4589 496 4694 
Q 608 4800 762 4800 
Q 922 4800 1034 4694 
Q 1146 4589 1146 4438 
Q 1146 4288 1034 4179 
Q 922 4070 765 4070 
z
" transform="scale(0.015625)"/>
      </defs>
      <use xlink:href="#Sarasa-Gothic-SC-Regular-66"/>
      <use xlink:href="#Sarasa-Gothic-SC-Regular-69" x="35.999985"/>
      <use xlink:href="#Sarasa-Gothic-SC-Regular-74" x="59.699982"/>
     </g>
    </g>
   </g>
  </g>
 </g>
 <defs>
  <clipPath id="p127cc76c74">
   <rect x="57.6" y="41.472" width="357.12" height="266.112"/>
  </clipPath>
 </defs>
</svg>
